{"title":"The.42nd.Annual.Peoples.Choice.Awards.2016.720p.HDTV.x264-KILLER","uid":13176898,"size":2516263106,"categoryP":"video","categoryS":"hd___tv_shows","magnet":"?xt=urn:btih:f7242b1cb546362a7337bc8e17a92afe869f5903&amp;dn=The.42nd.Annual.Peoples.Choice.Awards.2016.720p.HDTV.x264-KILLER&amp;tr=udp%3A%2F%2Ftracker.leechers-paradise.org%3A6969&amp;tr=udp%3A%2F%2Fzer0day.ch%3A1337&amp;tr=udp%3A%2F%2Fopen.demonii.com%3A1337&amp;tr=udp%3A%2F%2Ftracker.coppersurfer.tk%3A6969&amp;tr=udp%3A%2F%2Fexodus.desync.com%3A6969","seeders":0,"leechers":1,"uploader":"Mumo4","files":1,"time":1452301161,"description":"The 42nd Annual Peoples Choice Awards 2016 720p HDTV x264-KILLERS[brtv]\r\n\r\n\r\nFormat : Matroska\r\nFormat version : Version 4 / Version 2\r\nFile size : 2.34 GiB\r\nDuration : 1h 27mn\r\nOverall bit rate : 3 817 Kbps\r\nEncoded date : UTC 2016-01-07 08:14:02\r\nWriting application : mkvmerge v8.3.0 ('Over the Horizon') 64bit\r\nWriting library : libebml v1.3.1 + libmatroska v1.4.2\r\n\r\nVideo\r\nID : 1\r\nFormat : AVC\r\nFormat/Info : Advanced Video Codec\r\nFormat profile :   \r\nFormat settings, CABAC : Yes\r\nFormat settings, ReFrames : 5 frames\r\nCodec ID : V_MPEG4/ISO/AVC\r\nDuration : 1h 27mn\r\nBit rate : 3 357 Kbps\r\nWidth : 1 280 pixels\r\nHeight : 720 pixels\r\nDisplay aspect ratio : 16:9\r\nFrame rate mode : Constant\r\nFrame rate : 29.970 fps\r\nColor space : YUV\r\nChroma subsampling : 4:2:0\r\nBit depth : 8 bits\r\nScan type : Progressive\r\nBits/(Pixel*Frame) : 0.122\r\nStream size : 2.06 GiB (88%)\r\nWriting library : x264\r\nLanguage : English\r\nDefault : Yes\r\nForced : No\r\nColor range : Limited\r\nMatrix coefficients : BT.709\r\n\r\nAudio\r\nID : 2\r\nFormat : AC-3\r\nFormat/Info : Audio Coding 3\r\nMode extension : CM (complete main)\r\nFormat settings, Endianness : Big\r\nCodec ID : A_AC3\r\nDuration : 1h 27mn\r\nBit rate mode : Constant\r\nBit rate : 384 Kbps\r\nChannel(s) : 6 channels\r\nChannel positions : Front: L C R, Side: L R, LFE\r\nSampling rate : 48.0 KHz\r\nCompression mode : Lossy\r\nDelay relative to video : 39ms\r\nStream size : 241 MiB (10%)\r\nDefault : Yes\r\nForced : No","torrent":{"xt":"urn:btih:f7242b1cb546362a7337bc8e17a92afe869f5903","amp;dn":"The.42nd.Annual.Peoples.Choice.Awards.2016.720p.HDTV.x264-KILLER","amp;tr":["udp%3A%2F%2Ftracker.leechers-paradise.org%3A6969","udp%3A%2F%2Fzer0day.ch%3A1337","udp%3A%2F%2Fopen.demonii.com%3A1337","udp%3A%2F%2Ftracker.coppersurfer.tk%3A6969","udp%3A%2F%2Fexodus.desync.com%3A6969"],"infoHash":"f7242b1cb546362a7337bc8e17a92afe869f5903","infoHashBuffer":{"type":"Buffer","data":[247,36,43,28,181,70,54,42,115,55,188,142,23,169,42,254,134,159,89,3]},"announce":[],"urlList":[]}}